<?xml version="1.0" standalone="no"?><!DOCTYPE svg PUBLIC "-//W3C//DTD SVG 1.1//EN" "http://www.w3.org/Graphics/SVG/1.1/DTD/svg11.dtd"><svg t="1696496258215" class="icon" viewBox="0 0 1024 1024" version="1.1" xmlns="http://www.w3.org/2000/svg" p-id="8976" xmlns:xlink="http://www.w3.org/1999/xlink" width="200" height="200"><path d="M332.7 873.8a179.3 61.7 0 1 0 358.6 0 179.3 61.7 0 1 0-358.6 0Z" fill="#FF9A94" p-id="8977"></path><path d="M512 960.6c-50.6 0-98.5-6.9-134.9-19.4-19.3-6.6-34.8-14.7-46.1-23.9-19.3-15.7-23.3-32.3-23.3-43.4 0-19.8 12-47.6 69.4-67.3 36.4-12.5 84.3-19.4 134.9-19.4 50.6 0 98.5 6.9 134.9 19.4 19.3 6.6 34.8 14.7 46.1 23.9 19.3 15.7 23.3 32.3 23.3 43.4 0 19.8-12 47.6-69.4 67.3-36.4 12.5-84.3 19.4-134.9 19.4z m-154-86.8c2.3 3.7 13.1 13.3 42.2 22.2 30.5 9.4 70.2 14.5 111.8 14.5s81.3-5.2 111.8-14.5c29.1-8.9 39.9-18.5 42.2-22.2-2.3-3.7-13.1-13.3-42.2-22.2-30.5-9.4-70.2-14.5-111.8-14.5s-81.3 5.2-111.8 14.5c-29.1 8.9-39.9 18.5-42.2 22.2z" fill="#5F0F00" p-id="8978"></path><path d="M558.5 872.6c13.9-3.8 22.8-17.5 21.3-31.9-4.7-47.3-10-136.3 77.9-204.2 103.1-79.7 221.9-98.9 250.4-163.4s25.5-195.5 28.4-261.6c1-24-8.5-134.6-69.5-120-65.4 15.6-23.5 135.8-46 150.8s-83.9-82.7-125.9-31.7c-46.8 56.8 81 108 88.5 142.5 5.5 25.3 13.6 67.7-129.2 152.3 0 0-16.2-23.6-35.9-51.9-17-24.5-50.9-7.4-51.5 11.5-0.9 25.5 32.5 58.5 31.5 81-1.5 33-60.6 81.5-73 128.8-21.1 80.6-14.2 168.6-6.4 184.8 6.9 14.6 22.6 17.6 39.4 13z" fill="#ED1C24" p-id="8979"></path><path d="M544.6 899.6c-21.5 0-39.1-10.4-48.1-29.3-9.2-19.3-10-65.3-10-78.9-0.1-30 2.5-75.7 14.9-122.9 7.4-28.2 27.1-54.7 44.5-78.1C557.3 575 573 554 573.5 545c-0.2-4.5-7.5-17.2-11.8-24.8-9.6-16.8-20.4-35.8-19.7-56 0.7-20.3 16.6-39 38.7-45.5 22.6-6.7 44.9 1.3 58.4 20.6 8.5 12.2 16.3 23.6 22.5 32.5 47.2-29.7 78-55.8 91.8-78 9.8-15.7 8.1-24.6 5.9-34.7-3.1-6.1-20.2-19.9-31.6-29-30-24.2-63.9-51.6-67.6-87.5-1.7-16.8 3.7-33.3 15.7-47.8 18-21.9 42.8-29.1 69.7-20.3 18.9 6.2 35.8 18.9 50.8 30.2 2.2 1.6 4.7 3.5 7.2 5.4 0-5.6-0.2-11.6-0.3-16.5-0.6-21.8-1.2-46.4 4.3-68.7 9.6-39.3 34.5-53 53.7-57.6 20.9-5 40.5-0.6 56.5 12.6 17.4 14.3 30 38.7 37.4 72.5 5.1 23.3 6.9 47.6 6.4 60.3-0.5 11.7-0.8 25.8-1.2 40.8-1.7 72.8-3.9 172.4-29.3 229.8-19.9 44.9-70 69.4-128.1 97.7-40.9 19.9-87.2 42.4-129.8 75.4-34 26.3-55.2 57.7-64.7 96.1-7.6 30.8-6.3 59.5-3.6 85.9 2.7 26.8-14 51.4-39.6 58.4-7.2 1.8-14.1 2.8-20.6 2.8z m-2.7-50.4c0.8 0.3 4.1 0.9 10-0.7 2-0.5 3.3-2.9 3.1-5.3-4-40.4-14.7-147.5 87.5-226.5 46.7-36.1 95.5-59.8 138.5-80.8 49.3-24 91.8-44.7 104.3-72.9 21.4-48.3 23.6-146.1 25.1-210.8 0.3-15.2 0.7-29.6 1.2-41.8 0.9-20.5-6.8-76.6-25.6-92.1-3.2-2.6-6.6-4.1-13.1-2.5-18.1 4.3-20.8 29.1-19.6 76.4 0.8 30.9 1.5 57.7-18.3 70.9-8.3 5.5-22.4 9.9-42.3-0.6-8.5-4.5-17.2-11-26.3-17.9-11.8-8.9-25.2-19-36.2-22.6-7.4-2.4-10.6-1.5-15.6 4.6s-4.7 9.5-4.5 11c1.5 15.2 30.3 38.4 49.3 53.7 23.8 19.2 44.3 35.8 48.9 56.6 3 13.7 8.5 39.1-12.2 72.4-20.2 32.4-62.3 67.4-128.7 106.7-11.3 6.7-25.9 3.5-33.4-7.3-0.2-0.2-16.4-23.8-35.8-51.8-1-1.4-1.4-1.4-1.7-1.4-1.4 0-3 0.8-4.1 1.6 1.2 6.8 8.2 19.1 13 27.5 9.4 16.5 19.1 33.5 18.3 51.7-1.1 24.2-18.8 47.9-37.5 73-14.7 19.7-31.3 42.1-36.3 60.9-20.3 77.3-12.4 155.9-8 167.9-0.1 0-0.1 0.1 0 0.1z" fill="#9D1A13" p-id="8980"></path><path d="M465.4 872.6c-13.9-3.8-22.8-17.5-21.3-31.9 4.7-47.3 10-136.3-77.9-204.2-103.1-79.7-221.9-98.9-250.4-163.4S90.3 277.6 87.5 211.5c-1-24 8.5-134.6 69.5-120 65.4 15.6 23.5 135.8 46 150.8s83.9-82.7 125.9-31.7c46.8 56.8-81 108-88.5 142.5-5.5 25.3-13.6 67.7 129.2 152.3 0 0 16.2-23.6 35.9-51.9 17-24.5 50.9-7.4 51.5 11.5 0.9 25.5-32.5 58.5-31.5 81 1.5 33 60.6 81.5 73 128.8 21.1 80.6 14.2 168.6 6.4 184.8-7 14.6-22.6 17.6-39.5 13z" fill="#ED1C24" p-id="8981"></path><path d="M479.3 899.6c-6.5 0-13.4-1-20.5-2.9-25.6-7-42.3-31.6-39.6-58.4 2.6-26.4 4-55.1-3.6-85.9-9.5-38.4-30.6-69.8-64.7-96.1-42.6-33-88.9-55.5-129.8-75.4C163 552.6 112.9 528.1 93 483.2c-25.4-57.4-27.6-157.1-29.3-229.8-0.3-15-0.7-29.1-1.2-40.8-0.5-12.7 1.2-37 6.4-60.3 7.5-33.8 20.1-58.2 37.4-72.5 16-13.2 35.6-17.6 56.5-12.6 19.2 4.6 44 18.3 53.7 57.6 5.5 22.3 4.8 47 4.3 68.7-0.1 4.9-0.3 10.9-0.3 16.5 2.5-1.9 5-3.8 7.2-5.4 14.9-11.3 31.9-24 50.8-30.2 26.9-8.8 51.7-1.6 69.7 20.3 11.9 14.5 17.4 31.1 15.7 47.8-3.7 36-37.6 63.4-67.6 87.5-11.4 9.2-28.4 22.9-31.6 29-2.2 10.1-3.8 19 5.9 34.7 13.8 22.1 44.6 48.3 91.8 78 6.2-9 14.1-20.3 22.5-32.5 13.5-19.4 35.8-27.3 58.4-20.6 22.1 6.5 38 25.2 38.7 45.5 0.7 20.2-10.2 39.2-19.7 56-4.3 7.6-11.5 20.3-11.8 24.8 0.5 9 16.2 30 27.6 45.4 17.4 23.4 37.1 49.9 44.5 78.1 12.4 47.3 14.9 92.9 14.9 122.9 0 13.6-0.8 59.6-10 78.9-9.1 19-26.6 29.4-48.2 29.4zM146.4 115.2c-3.6 0-6 1.3-8.3 3.2-18.8 15.5-26.5 71.6-25.6 92.1 0.5 12.2 0.8 26.6 1.2 41.8 1.5 64.7 3.7 162.4 25.1 210.8 12.5 28.2 55 48.9 104.3 72.9 43 21 91.8 44.7 138.5 80.8 102.1 79 91.5 186.1 87.5 226.5-0.2 2.4 1.1 4.7 3.1 5.3 5.9 1.6 9.2 1.1 10 0.7 0-0.1 0.1-0.1 0.2-0.3 4.4-11.9 12.3-90.5-8-167.9-4.9-18.8-21.6-41.2-36.3-60.9-18.7-25.1-36.4-48.8-37.5-73-0.8-18.2 8.9-35.2 18.3-51.7 4.8-8.4 11.8-20.7 13-27.5-1.1-0.8-2.7-1.6-4.1-1.6-0.3 0-0.7 0-1.7 1.4-19.4 28-35.7 51.6-35.8 51.8-7.5 10.8-22 14.1-33.4 7.3-66.4-39.4-108.5-74.3-128.7-106.7-20.7-33.3-15.2-58.8-12.2-72.4 4.5-20.8 25.1-37.4 48.9-56.6 19-15.3 47.7-38.5 49.3-53.7 0.1-1.5 0.5-4.9-4.5-11-5-6-8.2-7-15.6-4.6-11 3.6-24.4 13.7-36.2 22.6-9.1 6.9-17.8 13.4-26.3 17.9-20 10.5-34.1 6.2-42.3 0.6-19.8-13.2-19.1-39.9-18.3-70.9 1.6-60.3-5.4-73-19.6-76.4-2-0.3-3.6-0.5-5-0.5z" fill="#9D1A13" p-id="8982"></path><path d="M671.1 579.6c-5.6 0-11.1-3.2-13.6-8.7-3.5-7.5-0.3-16.4 7.2-19.9 1.3-0.6 133.1-62.4 179.6-109.9 4.7-4.8 20.2-29.3 23-143 1.5-63-1.7-122.1-1.7-122.7-0.5-8.3 5.9-15.3 14.1-15.8 8.3-0.4 15.3 5.9 15.8 14.1 0 0.6 3.3 60.7 1.8 124.9-2.9 120.6-19.4 151-31.5 163.4-21.3 21.8-59.6 48-113.8 77.9-39.9 22-73.1 37.6-74.5 38.2-2.1 1-4.3 1.5-6.4 1.5z" fill="#FFFFFF" p-id="8983"></path></svg>